<svg xmlns="http://www.w3.org/2000/svg" width="12.739" height="12.739" viewBox="0 0 12.739 12.739">
  <g id="ticket-outline" transform="translate(-31.465 -31.465)">
    <path id="Path_24" data-name="Path 24" d="M40.7,34.97a1.216,1.216,0,0,1-.063-1.652.1.1,0,0,0-.006-.137l-1.149-1.151a.1.1,0,0,0-.143,0l-1.832,1.832a.615.615,0,0,0-.149.241h0a.616.616,0,0,1-.389.391h0a.617.617,0,0,0-.241.149l-4.7,4.7a.1.1,0,0,0,0,.143l1.149,1.149a.1.1,0,0,0,.137.006,1.216,1.216,0,0,1,1.715,1.715.1.1,0,0,0,.006.137l1.149,1.149a.1.1,0,0,0,.143,0l4.7-4.7a.617.617,0,0,0,.149-.241h0a.616.616,0,0,1,.389-.391h0a.615.615,0,0,0,.241-.149l1.832-1.832a.1.1,0,0,0,0-.143l-1.149-1.149a.1.1,0,0,0-.137-.006A1.216,1.216,0,0,1,40.7,34.97Z" fill="none" stroke="#444" stroke-miterlimit="10" stroke-width="1"/>
    <path id="Path_25" data-name="Path 25" d="M234.42,124.36l-.43-.43m1.576,1.576-.287-.286m1.433,1.433-.286-.287M238,127.942l-.43-.43" transform="translate(-196.729 -89.535)" fill="none" stroke="#444" stroke-linecap="round" stroke-miterlimit="10" stroke-width="1"/>
  </g>
</svg>
