<svg xmlns="http://www.w3.org/2000/svg" width="10.997" height="10.352" viewBox="0 0 10.997 10.352">
  <g id="pricetags-outline" transform="translate(0.302 0.25)">
    <path id="Path_16" data-name="Path 16" d="M24.427,32H21.752a.315.315,0,0,0-.222.091l-5.347,5.346a.628.628,0,0,0,0,.886l2.546,2.546a.628.628,0,0,0,.886,0l5.346-5.344a.315.315,0,0,0,.091-.222V32.627A.624.624,0,0,0,24.427,32Z" transform="translate(-16 -32)" fill="none" stroke="#0abc39" stroke-linecap="round" stroke-linejoin="round" stroke-width="0.5"/>
    <path id="Path_17" data-name="Path 17" d="M320.7,81.393a.7.7,0,1,1,.7-.7A.7.7,0,0,1,320.7,81.393Z" transform="translate(-313.385 -78.956)" fill="#008a24"/>
    <path id="Path_18" data-name="Path 18" d="M230,88.7l5.7-5.7a.3.3,0,0,0,.087-.218V80" transform="translate(-225.344 -78.956)" fill="none" stroke="#0abc39" stroke-linecap="round" stroke-linejoin="round" stroke-width="0.5"/>
  </g>
</svg>
